<svg width="158" height="48" viewBox="0 0 158 48" fill="none" xmlns="http://www.w3.org/2000/svg">
<rect width="158" height="48" rx="6" fill="#770DFF"/>
<path d="M17.764 17.786L17.078 18.444C18.1 19.228 18.898 19.97 19.486 20.67L20.2 19.97C19.542 19.242 18.73 18.514 17.764 17.786ZM25.954 30.148H29.132L29.37 29.14C29.006 29.168 28.488 29.182 27.816 29.196C27.13 29.21 26.458 29.224 25.814 29.224C24.708 29.224 23.784 29.21 23.042 29.196C22.202 29.168 21.572 29.056 21.124 28.86C20.732 28.678 20.368 28.384 20.032 27.978C19.906 27.838 19.794 27.74 19.682 27.656V22.42H16.756V23.344H18.744V27.6C18.17 27.852 17.512 28.566 16.77 29.742L17.526 30.428C18.296 29.14 18.856 28.496 19.192 28.496C19.36 28.496 19.542 28.608 19.738 28.846C20.172 29.35 20.676 29.7 21.236 29.868C21.796 30.022 22.538 30.106 23.448 30.12C24.344 30.134 25.184 30.148 25.954 30.148ZM23.448 19.13L22.832 19.732C23.518 20.096 24.134 20.474 24.666 20.852H21.166V28.3H22.118V25.85H24.456V28.258H25.394V25.85H27.746V26.9C27.746 27.208 27.578 27.376 27.242 27.376L26.136 27.334L26.36 28.188H27.522C28.306 28.188 28.698 27.824 28.698 27.11V20.852H25.926L25.702 20.67C26.682 20.138 27.592 19.508 28.432 18.78V18.052H20.858V18.906H27.074C26.458 19.382 25.786 19.802 25.058 20.18C24.582 19.83 24.036 19.48 23.448 19.13ZM22.118 23.792H24.456V25.024H22.118V23.792ZM25.394 23.792H27.746V25.024H25.394V23.792ZM27.746 22.952H25.394V21.692H27.746V22.952ZM24.456 22.952H22.118V21.692H24.456V22.952ZM31.722 17.758L31.022 18.416C32.03 19.228 32.814 19.998 33.388 20.712L34.116 19.97C33.472 19.242 32.674 18.5 31.722 17.758ZM40.234 30.148H43.188L43.44 29.126C43.104 29.154 42.614 29.168 41.984 29.182C41.34 29.182 40.724 29.196 40.108 29.196C38.96 29.196 37.994 29.182 37.224 29.168C36.356 29.14 35.684 29.042 35.236 28.86C34.83 28.664 34.452 28.37 34.088 27.978C33.962 27.838 33.836 27.74 33.724 27.656V22.406H30.742V23.358H32.758V27.6C32.17 27.852 31.512 28.58 30.756 29.784L31.512 30.456C32.296 29.14 32.87 28.496 33.206 28.496C33.388 28.496 33.584 28.608 33.78 28.846C34.228 29.35 34.746 29.7 35.334 29.868C35.908 30.022 36.678 30.106 37.63 30.12C38.568 30.134 39.436 30.148 40.234 30.148ZM39.814 28.272C40.654 28.272 41.088 27.852 41.088 27.04V20.852H43.16V19.858H41.088V17.59H40.066V19.858H34.774V20.852H40.066V26.802C40.066 27.18 39.856 27.376 39.464 27.376C38.876 27.376 38.246 27.348 37.602 27.306L37.826 28.272H39.814ZM36.3 22.098L35.516 22.602C36.37 23.624 37.042 24.548 37.546 25.388L38.358 24.828C37.882 24.044 37.196 23.134 36.3 22.098ZM49.376 18.808C47.864 18.808 46.688 19.312 45.82 20.32C44.994 21.272 44.588 22.504 44.588 24.016C44.588 25.514 44.994 26.746 45.82 27.698C46.688 28.692 47.864 29.196 49.362 29.196C50.86 29.196 52.05 28.692 52.918 27.698C53.73 26.746 54.15 25.528 54.15 24.016C54.15 22.49 53.73 21.258 52.918 20.306C52.05 19.298 50.86 18.808 49.376 18.808ZM49.376 19.83C50.524 19.83 51.42 20.208 52.064 20.978C52.68 21.734 53.002 22.742 53.002 24.016C53.002 25.276 52.68 26.27 52.064 27.026C51.42 27.782 50.51 28.174 49.362 28.174C48.214 28.174 47.304 27.782 46.66 26.998C46.044 26.242 45.736 25.248 45.736 24.016C45.736 22.77 46.044 21.776 46.66 21.02C47.318 20.222 48.228 19.83 49.376 19.83ZM58.7504 21.566C57.8824 21.566 57.1964 21.734 56.6644 22.07C56.0764 22.434 55.6984 23.008 55.5444 23.764L56.6504 23.848C56.7624 23.386 57.0004 23.036 57.3784 22.812C57.7144 22.588 58.1484 22.49 58.6804 22.49C59.9404 22.49 60.5704 23.092 60.5704 24.31V24.688L58.8344 24.716C57.7424 24.73 56.9024 24.94 56.3144 25.332C55.6424 25.752 55.3204 26.368 55.3204 27.194C55.3204 27.782 55.5444 28.272 55.9924 28.65C56.4264 29.014 57.0004 29.196 57.7284 29.196C58.4004 29.196 59.0024 29.042 59.5344 28.748C59.9824 28.496 60.3604 28.174 60.6404 27.782V29H61.6904V24.352C61.6904 23.512 61.4664 22.854 61.0464 22.378C60.5424 21.832 59.7864 21.566 58.7504 21.566ZM60.5704 25.528V26.144C60.5704 26.704 60.3044 27.208 59.7864 27.642C59.2544 28.09 58.6524 28.314 57.9664 28.314C57.5184 28.314 57.1544 28.202 56.8744 27.992C56.5944 27.768 56.4684 27.502 56.4684 27.166C56.4684 26.116 57.2804 25.584 58.9044 25.556L60.5704 25.528ZM65.9827 21.566C65.1707 21.566 64.4987 21.748 63.9947 22.112C63.4487 22.476 63.1827 22.952 63.1827 23.568C63.1827 24.184 63.4487 24.646 64.0087 24.982C64.3447 25.206 64.9467 25.416 65.8007 25.626C66.5847 25.822 67.1027 25.976 67.3407 26.088C67.7887 26.312 68.0267 26.62 68.0267 27.026C68.0267 27.838 67.3687 28.258 66.0807 28.258C65.4647 28.258 65.0027 28.146 64.6947 27.922C64.3867 27.67 64.1767 27.264 64.0927 26.69H63.0007C63.1687 28.356 64.2047 29.196 66.1087 29.196C68.1527 29.196 69.1747 28.44 69.1747 26.956C69.1747 26.326 68.8807 25.836 68.3067 25.472C67.9287 25.234 67.3127 25.01 66.4447 24.8C65.7167 24.604 65.2127 24.45 64.9467 24.324C64.5267 24.114 64.3307 23.848 64.3307 23.54C64.3307 23.218 64.4847 22.966 64.7927 22.784C65.0727 22.588 65.4647 22.504 65.9687 22.504C66.5427 22.504 66.9907 22.616 67.2987 22.84C67.5787 23.036 67.7607 23.372 67.8587 23.82H68.9507C68.7547 22.308 67.7747 21.566 65.9827 21.566ZM71.4131 19.032C71.1751 19.032 70.9791 19.102 70.8111 19.27C70.6431 19.41 70.5731 19.606 70.5731 19.858C70.5731 20.096 70.6431 20.292 70.8111 20.46C70.9791 20.614 71.1751 20.698 71.4131 20.698C71.6511 20.698 71.8471 20.614 72.0151 20.46C72.1831 20.292 72.2671 20.096 72.2671 19.858C72.2671 19.606 72.1831 19.41 72.0151 19.27C71.8471 19.102 71.6511 19.032 71.4131 19.032ZM70.8531 21.762V29H71.9731V21.762H70.8531ZM76.6331 21.566C75.8211 21.566 75.1491 21.748 74.6451 22.112C74.0991 22.476 73.8331 22.952 73.8331 23.568C73.8331 24.184 74.0991 24.646 74.6591 24.982C74.9951 25.206 75.5971 25.416 76.4511 25.626C77.2351 25.822 77.7531 25.976 77.9911 26.088C78.4391 26.312 78.6771 26.62 78.6771 27.026C78.6771 27.838 78.0191 28.258 76.7311 28.258C76.1151 28.258 75.6531 28.146 75.3451 27.922C75.0371 27.67 74.8271 27.264 74.7431 26.69H73.6511C73.8191 28.356 74.8551 29.196 76.7591 29.196C78.8031 29.196 79.8251 28.44 79.8251 26.956C79.8251 26.326 79.5311 25.836 78.9571 25.472C78.5791 25.234 77.9631 25.01 77.0951 24.8C76.3671 24.604 75.8631 24.45 75.5971 24.324C75.1771 24.114 74.9811 23.848 74.9811 23.54C74.9811 23.218 75.1351 22.966 75.4431 22.784C75.7231 22.588 76.1151 22.504 76.6191 22.504C77.1931 22.504 77.6411 22.616 77.9491 22.84C78.2291 23.036 78.4111 23.372 78.5091 23.82H79.6011C79.4051 22.308 78.4251 21.566 76.6331 21.566ZM93.6275 26.648L92.6335 26.326C92.5915 27.446 92.5215 28.202 92.4095 28.58C92.2975 28.972 92.0455 29.168 91.6535 29.168H89.4555C89.1615 29.154 89.0215 28.902 89.0215 28.426V23.834H92.8435V18.164H87.8035V19.116H91.8635V22.854H88.0415V28.79C88.0415 29.672 88.3775 30.12 89.0495 30.12H91.8215C92.4935 30.12 92.9275 29.896 93.1515 29.476C93.3755 29.042 93.5295 28.104 93.6275 26.648ZM80.9715 18.15V19.102H82.8615V20.726H81.3355V30.344H82.2315V29.588H86.2215V30.344H87.1175V20.726H85.5215V19.102H87.3415V18.15H80.9715ZM82.2315 28.636V27.278H86.2215V28.636H82.2315ZM83.0575 21.65V22.56C83.0435 23.848 82.7915 24.772 82.2875 25.36L82.8195 25.85C83.4075 25.15 83.7155 24.058 83.7435 22.56V21.65H84.6255V24.17C84.6255 24.814 84.9195 25.136 85.5075 25.136H86.2215V26.354H82.2315V21.65H83.0575ZM83.7295 20.726V19.102H84.6535V20.726H83.7295ZM86.2215 24.352H85.6755C85.4375 24.352 85.3255 24.226 85.3255 23.988V21.65H86.2215V24.352ZM95.2655 21.524V22.294H100.599C100.543 22.56 100.501 22.826 100.445 23.092H97.0435V29.266H95.0135V30.078H107.543V29.266H105.513V23.092H101.453C101.509 22.84 101.551 22.574 101.607 22.294H107.291V21.524H101.719L101.803 20.712H106.339V18.094H96.2035V20.712H100.795L100.711 21.524H95.2655ZM98.0235 29.266V28.342H104.519V29.266H98.0235ZM98.0235 27.712V26.83H104.519V27.712H98.0235ZM98.0235 26.186V25.304H104.519V26.186H98.0235ZM98.0235 24.674V23.792H104.519V24.674H98.0235ZM105.387 19.998H103.301V18.836H105.387V19.998ZM102.377 19.998H100.165V18.836H102.377V19.998ZM99.2555 19.998H97.1695V18.836H99.2555V19.998Z" fill="white"/>
<path d="M129 34C134.523 34 139 29.5229 139 24C139 18.4771 134.523 14 129 14C123.477 14 119 18.4771 119 24C119 29.5229 123.477 34 129 34Z" stroke="white" stroke-width="2" stroke-linejoin="round"/>
<path d="M129 34C132.866 34 136 30.866 136 27C136 23.134 132.866 20 129 20C125.134 20 122 23.134 122 27C122 30.866 125.134 34 129 34Z" stroke="white" stroke-width="2" stroke-linejoin="round"/>
<path d="M129 34C131.209 34 133 32.2091 133 30C133 27.7908 131.209 26 129 26C126.791 26 125 27.7908 125 30C125 32.2091 126.791 34 129 34Z" stroke="white" stroke-width="2" stroke-linejoin="round"/>
</svg>
