<svg width="158" height="48" viewBox="0 0 158 48" fill="none" xmlns="http://www.w3.org/2000/svg">
<rect width="158" height="48" rx="6" fill="#770DFF"/>
<path d="M17.764 17.786L17.078 18.444C18.1 19.228 18.898 19.97 19.486 20.67L20.2 19.97C19.542 19.242 18.73 18.514 17.764 17.786ZM25.954 30.148H29.132L29.37 29.14C29.006 29.168 28.488 29.182 27.816 29.196C27.13 29.21 26.458 29.224 25.814 29.224C24.708 29.224 23.784 29.21 23.042 29.196C22.202 29.168 21.572 29.056 21.124 28.86C20.732 28.678 20.368 28.384 20.032 27.978C19.906 27.838 19.794 27.74 19.682 27.656V22.42H16.756V23.344H18.744V27.6C18.17 27.852 17.512 28.566 16.77 29.742L17.526 30.428C18.296 29.14 18.856 28.496 19.192 28.496C19.36 28.496 19.542 28.608 19.738 28.846C20.172 29.35 20.676 29.7 21.236 29.868C21.796 30.022 22.538 30.106 23.448 30.12C24.344 30.134 25.184 30.148 25.954 30.148ZM23.448 19.13L22.832 19.732C23.518 20.096 24.134 20.474 24.666 20.852H21.166V28.3H22.118V25.85H24.456V28.258H25.394V25.85H27.746V26.9C27.746 27.208 27.578 27.376 27.242 27.376L26.136 27.334L26.36 28.188H27.522C28.306 28.188 28.698 27.824 28.698 27.11V20.852H25.926L25.702 20.67C26.682 20.138 27.592 19.508 28.432 18.78V18.052H20.858V18.906H27.074C26.458 19.382 25.786 19.802 25.058 20.18C24.582 19.83 24.036 19.48 23.448 19.13ZM22.118 23.792H24.456V25.024H22.118V23.792ZM25.394 23.792H27.746V25.024H25.394V23.792ZM27.746 22.952H25.394V21.692H27.746V22.952ZM24.456 22.952H22.118V21.692H24.456V22.952ZM31.722 17.758L31.022 18.416C32.03 19.228 32.814 19.998 33.388 20.712L34.116 19.97C33.472 19.242 32.674 18.5 31.722 17.758ZM40.234 30.148H43.188L43.44 29.126C43.104 29.154 42.614 29.168 41.984 29.182C41.34 29.182 40.724 29.196 40.108 29.196C38.96 29.196 37.994 29.182 37.224 29.168C36.356 29.14 35.684 29.042 35.236 28.86C34.83 28.664 34.452 28.37 34.088 27.978C33.962 27.838 33.836 27.74 33.724 27.656V22.406H30.742V23.358H32.758V27.6C32.17 27.852 31.512 28.58 30.756 29.784L31.512 30.456C32.296 29.14 32.87 28.496 33.206 28.496C33.388 28.496 33.584 28.608 33.78 28.846C34.228 29.35 34.746 29.7 35.334 29.868C35.908 30.022 36.678 30.106 37.63 30.12C38.568 30.134 39.436 30.148 40.234 30.148ZM39.814 28.272C40.654 28.272 41.088 27.852 41.088 27.04V20.852H43.16V19.858H41.088V17.59H40.066V19.858H34.774V20.852H40.066V26.802C40.066 27.18 39.856 27.376 39.464 27.376C38.876 27.376 38.246 27.348 37.602 27.306L37.826 28.272H39.814ZM36.3 22.098L35.516 22.602C36.37 23.624 37.042 24.548 37.546 25.388L38.358 24.828C37.882 24.044 37.196 23.134 36.3 22.098ZM44.336 19.004L47.752 23.806L44.07 29H45.484L48.452 24.716L51.434 29H52.848L49.138 23.806L52.582 19.004H51.168L48.452 22.896L45.75 19.004H44.336ZM53.9221 19.004V29H55.0701V24.702H58.0941C58.7241 24.702 59.2001 24.814 59.5361 25.066C59.9001 25.318 60.1101 25.752 60.1661 26.34L60.2921 27.67C60.3341 28.23 60.4741 28.664 60.6981 29H61.9441C61.6501 28.636 61.4681 28.146 61.4121 27.53L61.2581 25.99C61.1461 24.982 60.6141 24.38 59.6621 24.17V24.142C60.2361 24.002 60.6841 23.722 61.0201 23.274C61.3281 22.84 61.4821 22.35 61.4821 21.79C61.4821 20.866 61.1741 20.166 60.5861 19.69C60.0121 19.228 59.2281 19.004 58.2341 19.004H53.9221ZM55.0701 19.998H58.0941C58.8641 19.998 59.4381 20.152 59.8021 20.46C60.1381 20.754 60.3201 21.216 60.3201 21.832C60.3201 22.42 60.1381 22.868 59.7881 23.19C59.3961 23.526 58.8221 23.708 58.0941 23.708H55.0701V19.998ZM63.383 19.004V29H66.855C68.423 29 69.627 28.538 70.467 27.628C71.265 26.76 71.671 25.542 71.671 24.002C71.671 22.434 71.293 21.216 70.551 20.376C69.739 19.452 68.549 19.004 66.967 19.004H63.383ZM64.531 19.998H66.785C68.101 19.998 69.053 20.334 69.669 21.02C70.243 21.664 70.537 22.658 70.537 24.002C70.537 25.304 70.215 26.298 69.599 26.97C68.941 27.656 67.961 28.006 66.659 28.006H64.531V19.998ZM73.2678 19.004V29H74.4158V24.912H77.3418C79.6378 24.912 80.7998 23.918 80.7998 21.944C80.7998 19.984 79.6518 19.004 77.3558 19.004H73.2678ZM74.4158 19.998H77.2858C78.0838 19.998 78.6718 20.152 79.0638 20.488C79.4558 20.782 79.6518 21.272 79.6518 21.944C79.6518 22.616 79.4558 23.106 79.0778 23.428C78.6858 23.75 78.0978 23.918 77.2858 23.918H74.4158V19.998ZM94.5982 26.648L93.6042 26.326C93.5622 27.446 93.4922 28.202 93.3802 28.58C93.2682 28.972 93.0162 29.168 92.6242 29.168H90.4262C90.1322 29.154 89.9922 28.902 89.9922 28.426V23.834H93.8142V18.164H88.7742V19.116H92.8342V22.854H89.0122V28.79C89.0122 29.672 89.3482 30.12 90.0202 30.12H92.7922C93.4642 30.12 93.8982 29.896 94.1222 29.476C94.3462 29.042 94.5002 28.104 94.5982 26.648ZM81.9422 18.15V19.102H83.8322V20.726H82.3062V30.344H83.2022V29.588H87.1922V30.344H88.0882V20.726H86.4922V19.102H88.3122V18.15H81.9422ZM83.2022 28.636V27.278H87.1922V28.636H83.2022ZM84.0282 21.65V22.56C84.0142 23.848 83.7622 24.772 83.2582 25.36L83.7902 25.85C84.3782 25.15 84.6862 24.058 84.7142 22.56V21.65H85.5962V24.17C85.5962 24.814 85.8902 25.136 86.4782 25.136H87.1922V26.354H83.2022V21.65H84.0282ZM84.7002 20.726V19.102H85.6242V20.726H84.7002ZM87.1922 24.352H86.6462C86.4082 24.352 86.2962 24.226 86.2962 23.988V21.65H87.1922V24.352ZM96.2362 21.524V22.294H101.57C101.514 22.56 101.472 22.826 101.416 23.092H98.0142V29.266H95.9842V30.078H108.514V29.266H106.484V23.092H102.424C102.48 22.84 102.522 22.574 102.578 22.294H108.262V21.524H102.69L102.774 20.712H107.31V18.094H97.1742V20.712H101.766L101.682 21.524H96.2362ZM98.9942 29.266V28.342H105.49V29.266H98.9942ZM98.9942 27.712V26.83H105.49V27.712H98.9942ZM98.9942 26.186V25.304H105.49V26.186H98.9942ZM98.9942 24.674V23.792H105.49V24.674H98.9942ZM106.358 19.998H104.272V18.836H106.358V19.998ZM103.348 19.998H101.136V18.836H103.348V19.998ZM100.226 19.998H98.1402V18.836H100.226V19.998Z" fill="white"/>
<path d="M124 29.5068H122.5H120V16.0064C120 15.4543 120.448 15.0068 121 15.0068H139C139.552 15.0068 140 15.4543 140 16.0064V29.5068H136" stroke="white" stroke-width="2" stroke-linecap="round" stroke-linejoin="round"/>
<path d="M130 28L125 33H135L130 28Z" stroke="white" stroke-width="2" stroke-linejoin="round"/>
</svg>
