<svg width="158" height="48" viewBox="0 0 158 48" fill="none" xmlns="http://www.w3.org/2000/svg">
<rect width="158" height="48" rx="6" fill="#770DFF"/>
<path d="M17.764 17.786L17.078 18.444C18.1 19.228 18.898 19.97 19.486 20.67L20.2 19.97C19.542 19.242 18.73 18.514 17.764 17.786ZM25.954 30.148H29.132L29.37 29.14C29.006 29.168 28.488 29.182 27.816 29.196C27.13 29.21 26.458 29.224 25.814 29.224C24.708 29.224 23.784 29.21 23.042 29.196C22.202 29.168 21.572 29.056 21.124 28.86C20.732 28.678 20.368 28.384 20.032 27.978C19.906 27.838 19.794 27.74 19.682 27.656V22.42H16.756V23.344H18.744V27.6C18.17 27.852 17.512 28.566 16.77 29.742L17.526 30.428C18.296 29.14 18.856 28.496 19.192 28.496C19.36 28.496 19.542 28.608 19.738 28.846C20.172 29.35 20.676 29.7 21.236 29.868C21.796 30.022 22.538 30.106 23.448 30.12C24.344 30.134 25.184 30.148 25.954 30.148ZM23.448 19.13L22.832 19.732C23.518 20.096 24.134 20.474 24.666 20.852H21.166V28.3H22.118V25.85H24.456V28.258H25.394V25.85H27.746V26.9C27.746 27.208 27.578 27.376 27.242 27.376L26.136 27.334L26.36 28.188H27.522C28.306 28.188 28.698 27.824 28.698 27.11V20.852H25.926L25.702 20.67C26.682 20.138 27.592 19.508 28.432 18.78V18.052H20.858V18.906H27.074C26.458 19.382 25.786 19.802 25.058 20.18C24.582 19.83 24.036 19.48 23.448 19.13ZM22.118 23.792H24.456V25.024H22.118V23.792ZM25.394 23.792H27.746V25.024H25.394V23.792ZM27.746 22.952H25.394V21.692H27.746V22.952ZM24.456 22.952H22.118V21.692H24.456V22.952ZM31.722 17.758L31.022 18.416C32.03 19.228 32.814 19.998 33.388 20.712L34.116 19.97C33.472 19.242 32.674 18.5 31.722 17.758ZM40.234 30.148H43.188L43.44 29.126C43.104 29.154 42.614 29.168 41.984 29.182C41.34 29.182 40.724 29.196 40.108 29.196C38.96 29.196 37.994 29.182 37.224 29.168C36.356 29.14 35.684 29.042 35.236 28.86C34.83 28.664 34.452 28.37 34.088 27.978C33.962 27.838 33.836 27.74 33.724 27.656V22.406H30.742V23.358H32.758V27.6C32.17 27.852 31.512 28.58 30.756 29.784L31.512 30.456C32.296 29.14 32.87 28.496 33.206 28.496C33.388 28.496 33.584 28.608 33.78 28.846C34.228 29.35 34.746 29.7 35.334 29.868C35.908 30.022 36.678 30.106 37.63 30.12C38.568 30.134 39.436 30.148 40.234 30.148ZM39.814 28.272C40.654 28.272 41.088 27.852 41.088 27.04V20.852H43.16V19.858H41.088V17.59H40.066V19.858H34.774V20.852H40.066V26.802C40.066 27.18 39.856 27.376 39.464 27.376C38.876 27.376 38.246 27.348 37.602 27.306L37.826 28.272H39.814ZM36.3 22.098L35.516 22.602C36.37 23.624 37.042 24.548 37.546 25.388L38.358 24.828C37.882 24.044 37.196 23.134 36.3 22.098ZM48.368 18.808C47.332 18.808 46.478 19.032 45.82 19.48C45.078 19.956 44.714 20.642 44.714 21.51C44.714 22.35 45.092 22.994 45.862 23.442C46.184 23.61 46.954 23.89 48.158 24.254C49.278 24.576 49.992 24.814 50.272 24.982C50.93 25.332 51.266 25.822 51.266 26.452C51.266 26.984 51.014 27.404 50.51 27.712C50.006 28.02 49.334 28.174 48.522 28.174C47.626 28.174 46.954 27.978 46.492 27.614C45.988 27.208 45.68 26.564 45.582 25.696H44.448C44.532 26.928 44.966 27.838 45.75 28.44C46.422 28.944 47.346 29.196 48.522 29.196C49.712 29.196 50.65 28.944 51.35 28.454C52.05 27.95 52.4 27.25 52.4 26.382C52.4 25.472 51.98 24.772 51.154 24.268C50.734 24.016 49.866 23.694 48.55 23.302C47.584 23.022 46.968 22.812 46.716 22.672C46.142 22.364 45.862 21.958 45.862 21.454C45.862 20.88 46.1 20.46 46.576 20.18C46.996 19.928 47.57 19.816 48.312 19.816C49.124 19.816 49.754 19.984 50.202 20.348C50.636 20.698 50.916 21.23 51.042 21.958H52.176C52.078 20.908 51.7 20.11 51.028 19.578C50.384 19.06 49.488 18.808 48.368 18.808ZM57.2137 18.808C56.1777 18.808 55.3237 19.032 54.6657 19.48C53.9237 19.956 53.5597 20.642 53.5597 21.51C53.5597 22.35 53.9377 22.994 54.7077 23.442C55.0297 23.61 55.7997 23.89 57.0037 24.254C58.1237 24.576 58.8377 24.814 59.1177 24.982C59.7757 25.332 60.1117 25.822 60.1117 26.452C60.1117 26.984 59.8597 27.404 59.3557 27.712C58.8517 28.02 58.1797 28.174 57.3677 28.174C56.4717 28.174 55.7997 27.978 55.3377 27.614C54.8337 27.208 54.5257 26.564 54.4277 25.696H53.2937C53.3777 26.928 53.8117 27.838 54.5957 28.44C55.2677 28.944 56.1917 29.196 57.3677 29.196C58.5577 29.196 59.4957 28.944 60.1957 28.454C60.8957 27.95 61.2457 27.25 61.2457 26.382C61.2457 25.472 60.8257 24.772 59.9997 24.268C59.5797 24.016 58.7117 23.694 57.3957 23.302C56.4297 23.022 55.8137 22.812 55.5617 22.672C54.9877 22.364 54.7077 21.958 54.7077 21.454C54.7077 20.88 54.9457 20.46 55.4217 20.18C55.8417 19.928 56.4157 19.816 57.1577 19.816C57.9697 19.816 58.5997 19.984 59.0477 20.348C59.4817 20.698 59.7617 21.23 59.8877 21.958H61.0217C60.9237 20.908 60.5457 20.11 59.8737 19.578C59.2297 19.06 58.3337 18.808 57.2137 18.808ZM62.6994 19.004V29H63.8474V24.338H69.6294V29H70.7774V19.004H69.6294V23.344H63.8474V19.004H62.6994ZM85.1236 26.648L84.1296 26.326C84.0876 27.446 84.0176 28.202 83.9056 28.58C83.7936 28.972 83.5416 29.168 83.1496 29.168H80.9516C80.6576 29.154 80.5176 28.902 80.5176 28.426V23.834H84.3396V18.164H79.2996V19.116H83.3596V22.854H79.5376V28.79C79.5376 29.672 79.8736 30.12 80.5456 30.12H83.3176C83.9896 30.12 84.4236 29.896 84.6476 29.476C84.8716 29.042 85.0256 28.104 85.1236 26.648ZM72.4676 18.15V19.102H74.3576V20.726H72.8316V30.344H73.7276V29.588H77.7176V30.344H78.6136V20.726H77.0176V19.102H78.8376V18.15H72.4676ZM73.7276 28.636V27.278H77.7176V28.636H73.7276ZM74.5536 21.65V22.56C74.5396 23.848 74.2876 24.772 73.7836 25.36L74.3156 25.85C74.9036 25.15 75.2116 24.058 75.2396 22.56V21.65H76.1216V24.17C76.1216 24.814 76.4156 25.136 77.0036 25.136H77.7176V26.354H73.7276V21.65H74.5536ZM75.2256 20.726V19.102H76.1496V20.726H75.2256ZM77.7176 24.352H77.1716C76.9336 24.352 76.8216 24.226 76.8216 23.988V21.65H77.7176V24.352ZM86.7616 21.524V22.294H92.0956C92.0396 22.56 91.9976 22.826 91.9416 23.092H88.5396V29.266H86.5096V30.078H99.0396V29.266H97.0096V23.092H92.9496C93.0056 22.84 93.0476 22.574 93.1036 22.294H98.7876V21.524H93.2156L93.2996 20.712H97.8356V18.094H87.6996V20.712H92.2916L92.2076 21.524H86.7616ZM89.5196 29.266V28.342H96.0156V29.266H89.5196ZM89.5196 27.712V26.83H96.0156V27.712H89.5196ZM89.5196 26.186V25.304H96.0156V26.186H89.5196ZM89.5196 24.674V23.792H96.0156V24.674H89.5196ZM96.8836 19.998H94.7976V18.836H96.8836V19.998ZM93.8736 19.998H91.6616V18.836H93.8736V19.998ZM90.7516 19.998H88.6656V18.836H90.7516V19.998Z" fill="white"/>
<path d="M129 16H111C110.448 16 110 16.4477 110 17V31C110 31.5523 110.448 32 111 32H129C129.552 32 130 31.5523 130 31V17C130 16.4477 129.552 16 129 16Z" stroke="white" stroke-width="2" stroke-linejoin="round"/>
<path d="M114 21L117.5 24L114 27" stroke="white" stroke-width="2" stroke-linecap="round" stroke-linejoin="round"/>
<path d="M119.5 28H126" stroke="white" stroke-width="2" stroke-linecap="round" stroke-linejoin="round"/>
</svg>
